<svg width="27" height="26" viewBox="0 0 27 26" fill="none" xmlns="http://www.w3.org/2000/svg">
<path fill-rule="evenodd" clip-rule="evenodd" d="M21.6476 6.06064C21.6476 6.9223 20.949 7.62064 20.0876 7.62064C19.2261 7.62064 18.5276 6.9223 18.5276 6.06064C18.5276 5.19898 19.2261 4.50064 20.0876 4.50064C20.9492 4.50064 21.6476 5.19898 21.6476 6.06064ZM13.1482 17.3333C10.755 17.3333 8.81493 15.3932 8.81493 13C8.81493 10.6068 10.755 8.66673 13.1482 8.66673C15.5414 8.66673 17.4815 10.6068 17.4815 13C17.4815 15.3932 15.5414 17.3333 13.1482 17.3333ZM13.1482 6.3243C9.46127 6.3243 6.47249 9.31308 6.47249 13C6.47249 16.6869 9.46127 19.6757 13.1482 19.6757C16.8351 19.6757 19.8239 16.6869 19.8239 13C19.8239 9.31308 16.8351 6.3243 13.1482 6.3243ZM13.1482 2.34244C16.6194 2.34244 17.0305 2.35564 18.4012 2.4182C19.6687 2.47609 20.3571 2.68775 20.8151 2.86589C21.4219 3.10172 21.8549 3.38345 22.3099 3.83845C22.7649 4.29325 23.0467 4.72631 23.2825 5.33325C23.4604 5.7913 23.6723 6.47969 23.7302 7.74719C23.7928 9.11808 23.806 9.5292 23.806 13.0004C23.806 16.4716 23.7928 16.8827 23.7302 18.2534C23.6723 19.5209 23.4606 20.2093 23.2825 20.6674C23.0467 21.2741 22.7649 21.7072 22.3099 22.1622C21.8551 22.6172 21.4221 22.8989 20.8151 23.1347C20.3571 23.3127 19.6687 23.5245 18.4012 23.5824C17.0305 23.645 16.6194 23.6582 13.1482 23.6582C9.67679 23.6582 9.26566 23.645 7.89497 23.5824C6.62747 23.5245 5.93908 23.3129 5.48104 23.1347C4.8743 22.8989 4.44124 22.6172 3.98624 22.1622C3.53144 21.7074 3.24951 21.2743 3.01368 20.6674C2.83574 20.2093 2.62388 19.5209 2.56599 18.2534C2.50343 16.8825 2.49022 16.4714 2.49022 13.0004C2.49022 9.5292 2.50343 9.11808 2.56599 7.74719C2.62388 6.47969 2.83554 5.7913 3.01368 5.33325C3.24951 4.72652 3.53124 4.29345 3.98624 3.83845C4.44104 3.38345 4.8741 3.10172 5.48104 2.86589C5.93908 2.68795 6.62747 2.47609 7.89497 2.4182C9.26587 2.35564 9.67699 2.34244 13.1482 2.34244ZM13.1482 0C9.61768 0 9.17486 0.0150313 7.78833 0.0782031C6.40465 0.141375 5.45951 0.361156 4.63279 0.6825C3.77783 1.01461 3.05288 1.45925 2.33016 2.18197C1.60744 2.90469 1.1628 3.62964 0.830693 4.48459C0.50935 5.31152 0.289568 6.25645 0.226396 7.64014C0.163225 9.02667 0.148193 9.46948 0.148193 13C0.148193 16.5305 0.163225 16.9733 0.226396 18.3599C0.289568 19.7435 0.50935 20.6885 0.830693 21.5154C1.1628 22.3704 1.60744 23.0953 2.33016 23.818C3.05288 24.5408 3.77783 24.9852 4.63279 25.3175C5.45971 25.6388 6.40465 25.8586 7.78833 25.9218C9.17486 25.985 9.61768 26 13.1482 26C16.6787 26 17.1215 25.985 18.5081 25.9218C19.8917 25.8586 20.8367 25.6388 21.6636 25.3175C22.5186 24.9852 23.2435 24.5408 23.9662 23.818C24.6889 23.0953 25.1334 22.3704 25.4657 21.5154C25.787 20.6885 26.0068 19.7435 26.07 18.3599C26.1332 16.9733 26.1482 16.5305 26.1482 13C26.1482 9.46948 26.1332 9.02667 26.07 7.64014C26.0068 6.25645 25.787 5.31152 25.4657 4.48459C25.1334 3.62964 24.6889 2.90469 23.9662 2.18197C23.2435 1.45925 22.5186 1.01481 21.6636 0.6825C20.8367 0.361156 19.8917 0.141375 18.5081 0.0782031C17.1215 0.0150313 16.6787 0 13.1482 0Z" fill="white"/>
</svg>
