<svg width="28" height="27" viewBox="0 0 28 27" fill="none" xmlns="http://www.w3.org/2000/svg">
<g clip-path="url(#clip0)">
<path d="M12.1069 0.0846215C8.80817 0.456255 5.76159 2.03378 3.54924 4.51579C1.3369 6.9978 0.113892 10.2103 0.113892 13.5395C0.113892 16.8687 1.3369 20.0812 3.54924 22.5632C5.76159 25.0452 8.80817 26.6227 12.1069 26.9944C12.2995 27.0192 12.4952 27.0026 12.681 26.9456C12.8667 26.8887 13.0382 26.7927 13.184 26.664C13.3299 26.5354 13.4467 26.3771 13.5267 26.1996C13.6067 26.0221 13.6481 25.8296 13.6482 25.6348V25.5445C13.6442 25.2041 13.5152 24.8772 13.2858 24.6263C13.0564 24.3754 12.7428 24.2182 12.405 24.1849C10.3582 23.9445 8.42439 23.1158 6.83641 21.7985C5.24843 20.4812 4.07405 18.7315 3.45472 16.7602C2.83539 14.789 2.79752 12.6802 3.34567 10.6878C3.89382 8.69545 5.00461 6.90452 6.54426 5.53073C8.08391 4.15694 9.98675 3.25887 12.0236 2.9447C14.0604 2.63053 16.1444 2.91366 18.0245 3.75998C19.9046 4.6063 21.5006 5.97972 22.6203 7.71481C23.7401 9.44991 24.3358 11.4727 24.3357 13.5395V15.4971C24.3354 15.7919 24.2695 16.083 24.1427 16.349C24.016 16.615 23.8316 16.8493 23.603 17.0347C23.3745 17.2202 23.1075 17.3521 22.8216 17.4208C22.5358 17.4896 22.2382 17.4934 21.9507 17.4321C21.5046 17.3269 21.1076 17.0722 20.8253 16.7101C20.5431 16.348 20.3924 15.9002 20.3982 15.4407V8.18011C20.4146 7.80606 20.2821 7.44079 20.03 7.16466C19.7779 6.88852 19.4267 6.72415 19.0538 6.70769C18.8691 6.69954 18.6846 6.72795 18.5109 6.7913C18.3372 6.85465 18.1776 6.95169 18.0413 7.0769C17.766 7.32975 17.6021 7.68195 17.5857 8.056C16.5373 7.29105 15.2916 6.84505 13.9972 6.77132C12.7029 6.69758 11.4148 6.99923 10.2869 7.6402C9.15892 8.28117 8.23889 9.23435 7.63674 10.3858C7.03458 11.5372 6.77579 12.8382 6.89129 14.1333C7.00678 15.4283 7.49168 16.6626 8.28802 17.6886C9.08437 18.7146 10.1585 19.4889 11.3819 19.9189C12.6054 20.349 13.9264 20.4165 15.1872 20.1136C16.4479 19.8107 17.595 19.15 18.4913 18.2106C18.8856 18.8074 19.41 19.3064 20.0249 19.67C20.6398 20.0336 21.3291 20.2522 22.0407 20.3092C22.6967 20.3534 23.3547 20.2616 23.9738 20.0395C24.5928 19.8173 25.1596 19.4697 25.6388 19.0182C26.118 18.5667 26.4994 18.021 26.759 17.4152C27.0187 16.8094 27.1512 16.1565 27.1482 15.4971V13.5395C27.1487 11.6307 26.7468 9.74334 25.9689 8.00128C25.1909 6.25923 24.0545 4.70183 22.6341 3.43128C21.2138 2.16073 19.5416 1.20574 17.7273 0.628974C15.9131 0.0522078 13.9977 -0.1333 12.1069 0.0846215ZM13.6482 17.4885C12.8694 17.4885 12.1081 17.2569 11.4606 16.823C10.8131 16.3891 10.3084 15.7723 10.0104 15.0507C9.71236 14.3291 9.63438 13.5351 9.78631 12.7691C9.93824 12.003 10.3133 11.2994 10.8639 10.7471C11.4146 10.1948 12.1162 9.81873 12.88 9.66635C13.6438 9.51398 14.4355 9.59218 15.155 9.89107C15.8745 10.19 16.4894 10.6961 16.9221 11.3455C17.3547 11.9949 17.5857 12.7584 17.5857 13.5395C17.5857 14.5868 17.1708 15.5913 16.4324 16.3319C15.694 17.0725 14.6924 17.4885 13.6482 17.4885Z" fill="white"/>
</g>
<defs>
<clipPath id="clip0">
<rect width="27" height="27" fill="white" transform="translate(0.148193)"/>
</clipPath>
</defs>
</svg>
