<svg width="27" height="26" viewBox="0 0 27 26" fill="none" xmlns="http://www.w3.org/2000/svg">
<g clip-path="url(#clip0)">
<path d="M2.39514 0.905189L2.56229 0.738046C2.81843 0.474175 3.13013 0.270669 3.47474 0.14231C3.81936 0.0139503 4.18824 -0.0360394 4.55459 -0.00402829C4.92094 0.0279828 5.27556 0.141191 5.59269 0.327373C5.90982 0.513555 6.1815 0.768036 6.388 1.07233L9.79276 5.93186C10.1317 6.4146 10.2895 7.00138 10.2386 7.58902C10.1876 8.17665 9.93114 8.72751 9.51419 9.14471L9.30371 9.35519C9.00179 9.65176 8.80787 10.0409 8.75289 10.4605C8.69792 10.8801 8.78504 11.3061 9.00038 11.6704C10.3398 13.926 12.2234 15.8096 14.479 17.149C14.8433 17.3643 15.2692 17.4515 15.6889 17.3965C16.1085 17.3415 16.4976 17.1476 16.7942 16.8457L17.0047 16.6352C17.4219 16.2182 17.9727 15.9617 18.5604 15.9108C19.148 15.8598 19.7348 16.0177 20.2175 16.3566L25.077 19.7614C25.3813 19.9679 25.6358 20.2396 25.822 20.5567C26.0082 20.8738 26.1214 21.2284 26.1534 21.5948C26.1854 21.9611 26.1354 22.33 26.0071 22.6746C25.8787 23.0193 25.6752 23.331 25.4113 23.5871L25.2442 23.7542C24.0131 24.9825 22.402 25.7571 20.6739 25.9516C18.9458 26.1461 17.2028 25.749 15.7294 24.8252C9.89384 21.1825 4.96691 16.2555 1.32419 10.42C0.400358 8.94662 0.00328359 7.20362 0.197794 5.47551C0.392303 3.74741 1.16691 2.13629 2.39514 0.905189Z" fill="white"/>
</g>
<defs>
<clipPath id="clip0">
<rect width="26" height="26" fill="white" transform="translate(0.148193)"/>
</clipPath>
</defs>
</svg>
